<svg xmlns="http://www.w3.org/2000/svg" viewBox="0 0 40 40"><path fill="#788b9c" d="M22.79 18.732c.23.76.334 2.152-.024 2.261-.359.109-1.044-1.108-1.275-1.868-.23-.76.082-.776.441-.885C22.291 18.132 22.56 17.972 22.79 18.732zM17.79 21.732c.23.76.334 2.152-.024 2.261-.359.109-1.044-1.108-1.275-1.868-.23-.76.082-.776.441-.885C17.291 21.132 17.56 20.972 17.79 21.732zM29.603 11.851c.314.681.577 1.976.237 2.133-.34.157-1.155-.883-1.469-1.564s-.009-.743.332-.901C29.043 11.363 29.289 11.171 29.603 11.851zM30.864 22.04c-.482-.574-1.076-1.755-.789-1.996s1.347.549 1.828 1.123.203.715-.084.956C31.533 22.365 31.345 22.614 30.864 22.04zM34.864 20.04c-.482-.574-1.076-1.755-.789-1.996.287-.241 1.347.549 1.828 1.123s.203.715-.084.956C35.533 20.365 35.345 20.614 34.864 20.04zM20.864 25.04c-.482-.574-1.076-1.755-.789-1.996s1.347.549 1.828 1.123.203.715-.084.956C21.533 25.365 21.345 25.614 20.864 25.04zM33.603 8.851c.314.681.577 1.976.237 2.133-.34.157-1.155-.883-1.469-1.564s-.009-.743.332-.901S33.289 8.171 33.603 8.851zM26.437 15.951c.446.966.819 2.804.337 3.027s-1.639-1.254-2.085-2.219c-.446-.966-.012-1.055.471-1.278S25.991 14.985 26.437 15.951zM26.973 23.974c-.599-.879-1.271-2.63-.831-2.93.439-.3 1.824.966 2.423 1.845.599.879.186 1.039-.253 1.338C27.871 24.527 27.572 24.853 26.973 23.974z"></path><path fill="#bae0bd" d="M12.541,38.5c-6.085,0-11.036-5.56-11.036-12.393c0-2.509,0.665-4.92,1.921-6.974 C3.475,19.055,3.5,18.964,3.5,18.872V17c0-2.481,2.019-4.5,4.5-4.5c0.979,0,1.912,0.313,2.697,0.907 c0.087,0.066,0.193,0.101,0.301,0.101c0.021,0,0.042-0.001,0.063-0.004c5.441-0.697,10.746-5.605,15.292-10.15 C28.207,1.5,29.13,1.5,29.871,1.5H30c2.691,0,4.5,1.407,4.5,3.5c0,1.656-1.261,3.793-2.997,5.083 c-0.239,0.176-0.491,0.34-0.744,0.479c-0.093,0.055-0.186,0.103-0.29,0.157c-0.828,0.433-2.214,1.157-3.9,4.028 c-1.479,2.518-4.277,3.975-7.239,5.517l-0.561,0.293c-0.867,0.453-1.833,1.57-2.855,2.752c-0.769,0.89-1.565,1.81-2.211,2.289 l-0.267,0.196c-1.227,0.903-2.286,1.683-3.445,1.706c-0.258,0.005-0.469,0.205-0.489,0.462c-0.02,0.257,0.16,0.487,0.414,0.53 c0.415,0.071,0.841,0.107,1.265,0.107c2.239,0,3.968-0.996,4.536-1.323l0.117-0.066c0.588-0.32,5.177-2.492,8.203-2.712 c4.038-0.294,5.27-0.623,9.15-3.438c0.087-0.063,0.171-0.131,0.253-0.199c0.065-0.054,0.13-0.107,0.196-0.155 c0.99-0.734,2.31-1.207,3.365-1.207c0.51,0,0.894,0.133,1.141,0.395c0.394,0.418,0.36,1.065,0.36,1.072 c-0.001,1.867-0.59,2.957-2.251,4.197c-0.396,0.289-1.582,0.784-2.956,1.356c-2.292,0.956-5.432,2.265-8.121,3.911 c-2.261,1.383-4.042,3.483-4.998,4.612c-0.231,0.272-0.409,0.484-0.53,0.605C17.663,37.482,15.135,38.5,12.541,38.5z"></path><path fill="#5e9c76" d="M29.872,2l0.063,0L30,2c2.393,0,4,1.206,4,3c0,1.486-1.202,3.498-2.792,4.679 C30.975,9.85,30.743,10,30.493,10.138c-0.075,0.044-0.16,0.088-0.255,0.137c-0.818,0.427-2.342,1.223-4.101,4.218 c-1.406,2.394-4.142,3.819-7.039,5.327l-0.562,0.293c-0.951,0.497-1.947,1.649-3.001,2.868c-0.752,0.869-1.529,1.768-2.127,2.211 l-0.272,0.2C11.98,26.245,10.981,26.981,9.981,27c-0.516,0.01-0.939,0.41-0.978,0.924c-0.039,0.514,0.32,0.974,0.828,1.061 c0.443,0.076,0.897,0.115,1.35,0.115c2.372,0,4.188-1.046,4.785-1.389l0.107-0.061c0.575-0.313,5.059-2.439,8-2.653 c4.09-0.298,5.448-0.66,9.407-3.532c0.095-0.069,0.187-0.143,0.277-0.217c0.057-0.047,0.114-0.094,0.179-0.142 C34.967,20.342,36.218,20,37,20c0.364,0,0.625,0.079,0.774,0.234c0.238,0.249,0.229,0.693,0.229,0.693l0,0 C38.001,20.951,38,20.976,38,21c0,1.67-0.517,2.619-2.041,3.757c-0.352,0.257-1.57,0.765-2.859,1.302 c-2.307,0.962-5.467,2.28-8.188,3.945c-2.328,1.425-4.143,3.565-5.118,4.714c-0.22,0.259-0.389,0.462-0.473,0.548 C17.416,37.029,15.008,38,12.541,38C6.731,38,2.005,32.665,2.005,26.107c0-2.417,0.639-4.738,1.848-6.713 C3.949,19.237,4,19.056,4,18.872v-0.935L4,17c0-2.206,1.794-4,4-4c0.87,0,1.698,0.279,2.396,0.806 c0.174,0.132,0.386,0.202,0.603,0.202c0.042,0,0.085-0.003,0.127-0.008c5.597-0.716,10.977-5.688,15.581-10.292 C28.414,2,29.222,2,29.872,2 M29.872,1C29.019,1,27.953,1.047,26,3c-4.813,4.813-9.896,9.354-15.001,10.008 C10.164,12.377,9.127,12,8,12c-2.761,0-5,2.239-5,5c0,0.52,0,1.354,0,1.872c-1.261,2.06-1.995,4.553-1.995,7.235 C1.005,33.232,6.176,39,12.541,39c2.796,0,5.451-1.141,7.459-3c0.616-0.622,2.675-3.455,5.434-5.143 c4.374-2.677,9.975-4.461,11.115-5.293C38.367,24.207,39,22.958,39,21c0,0,0.146-2-2-2c-1.059,0-2.506,0.448-3.659,1.303 c-0.149,0.109-0.292,0.24-0.448,0.353C29.031,23.458,27.828,23.721,24,24c-3.149,0.229-7.792,2.438-8.406,2.772 c-0.381,0.207-2.111,1.328-4.413,1.328c-0.379,0-0.774-0.03-1.181-0.1c1.411-0.027,2.629-0.996,4-2c1.52-1.126,3.566-4.25,5-5 c3.244-1.696,6.354-3.196,8-6c1.847-3.146,3.308-3.593,4-4c0.271-0.149,0.543-0.326,0.801-0.516C33.592,9.154,35,6.891,35,5 c0-2.375-2.063-4-5-4C29.958,1,29.915,1,29.872,1L29.872,1z"></path><path fill="#5e9c76" d="M9.895,15.668c0.713,0.713-2.419,4.035-3.227,3.227c-0.891-0.891-0.891-2.336,0-3.227	S9.004,14.777,9.895,15.668z"></path><path fill="#36404d" d="M7.891 18.665c.604-.399 1.26-1.07 1.679-1.69C8.734 16.46 7.76 16 7 16 7.498 16.451 7.762 17.671 7.891 18.665zM30 3A1 1 0 1 0 30 5 1 1 0 1 0 30 3z"></path><path fill="#36404d" d="M30,5h2v0c0-1.1-0.9-2-2-2h0V5z"></path></svg>